<svg width="600" height="483" viewBox="0 0 600 483" fill="none" xmlns="http://www.w3.org/2000/svg">
<g clip-path="url(#clip0_9_2)">
<path d="M218.332 366.101C216.515 361.752 216.316 356.897 217.769 352.414C219.222 347.931 222.233 344.115 226.257 341.656C227.596 340.842 226.372 338.733 225.025 339.551C220.41 342.304 216.965 346.652 215.343 351.771C213.721 356.891 214.035 362.427 216.225 367.331C216.84 368.769 218.943 367.528 218.332 366.101Z" fill="#3F3D56"/>
<path d="M219.03 369.379C215.738 363.554 216.513 356.584 217.697 350.286C218.932 343.71 220.552 337.034 219.151 330.347C218.515 327.1 217.01 324.086 214.797 321.626C213.731 320.469 212.009 322.196 213.071 323.349C217.21 327.84 217.69 334.355 217.019 340.14C216.227 346.965 213.983 353.614 214.262 360.549C214.334 364.066 215.247 367.515 216.923 370.609C217.092 370.877 217.358 371.068 217.666 371.143C217.973 371.218 218.298 371.171 218.571 371.011C218.845 370.851 219.045 370.592 219.131 370.288C219.216 369.983 219.18 369.657 219.03 369.379Z" fill="#3F3D56"/>
<path d="M236.693 387.979H195.21C194.24 387.978 193.31 387.592 192.623 386.907C191.937 386.221 191.551 385.292 191.55 384.322V372.15C191.554 369.023 192.799 366.024 195.013 363.812C197.227 361.601 200.229 360.356 203.36 360.353H209.445C209.768 360.353 210.078 360.224 210.307 359.996C210.536 359.767 210.664 359.457 210.665 359.134V353.447C210.665 352.908 210.88 352.392 211.261 352.011C211.642 351.63 212.159 351.416 212.698 351.415H219.205C219.744 351.416 220.261 351.63 220.642 352.011C221.023 352.392 221.238 352.908 221.238 353.447V359.134C221.239 359.457 221.367 359.767 221.596 359.996C221.825 360.224 222.135 360.353 222.459 360.353H228.543C231.674 360.357 234.676 361.601 236.89 363.812C239.104 366.024 240.349 369.023 240.353 372.15V384.322C240.352 385.292 239.966 386.221 239.28 386.907C238.593 387.592 237.663 387.978 236.693 387.979Z" fill="#CCCCCC"/>
<path d="M216.589 314.884C217.462 319.514 216.381 323.605 214.174 324.02C211.967 324.436 209.469 321.019 208.596 316.388C207.723 311.758 210.409 304.058 210.409 304.058C210.409 304.058 215.716 310.254 216.589 314.884Z" fill="#C0712D"/>
<path d="M233.339 336.426C230.574 340.243 226.857 342.27 225.037 340.954C223.218 339.639 223.985 335.478 226.751 331.661C229.517 327.845 236.961 324.5 236.961 324.5C236.961 324.5 236.105 332.609 233.339 336.426Z" fill="#C0712D"/>
<path d="M141.874 73.593C140.058 69.2441 139.858 64.3897 141.312 59.9067C142.765 55.4236 145.775 51.6077 149.799 49.1482C151.139 48.3344 149.914 46.2255 148.568 47.0434C143.952 49.7964 140.508 54.1442 138.886 59.2638C137.264 64.3833 137.578 69.9192 139.767 74.8233C140.383 76.2613 142.485 75.0209 141.874 73.593Z" fill="#3F3D56"/>
<path d="M142.572 76.8714C139.281 71.0469 140.056 64.0766 141.239 57.778C142.475 51.2029 144.095 44.5269 142.693 37.8396C142.058 34.5928 140.553 31.5789 138.339 29.1182C137.273 27.9617 135.551 29.6889 136.614 30.8418C140.753 35.3326 141.233 41.8473 140.562 47.6329C139.77 54.457 137.526 61.1067 137.804 68.041C137.877 71.5584 138.789 75.0075 140.465 78.1017C140.634 78.3691 140.901 78.5605 141.208 78.6355C141.516 78.7105 141.84 78.6632 142.114 78.5036C142.387 78.344 142.588 78.0845 142.673 77.78C142.759 77.4755 142.723 77.1497 142.572 76.8714Z" fill="#3F3D56"/>
<path d="M160.235 95.4712H118.753C117.783 95.4701 116.852 95.0846 116.166 94.3991C115.48 93.7136 115.094 92.7843 115.093 91.8149V79.6429C115.096 76.5151 116.342 73.5165 118.556 71.3048C120.77 69.0931 123.772 67.8491 126.903 67.8455H132.987C133.311 67.8452 133.621 67.7166 133.849 67.4881C134.078 67.2597 134.207 66.9499 134.207 66.6267V60.9391C134.208 60.4005 134.422 59.8842 134.803 59.5034C135.185 59.1226 135.701 58.9084 136.241 58.9078H142.748C143.287 58.9084 143.804 59.1226 144.185 59.5034C144.566 59.8842 144.78 60.4005 144.781 60.9391V66.6267C144.781 66.9499 144.91 67.2597 145.139 67.4881C145.368 67.7166 145.678 67.8452 146.001 67.8455H152.085C155.217 67.8491 158.218 69.0931 160.432 71.3048C162.646 73.5165 163.892 76.5151 163.895 79.6429V91.8149C163.894 92.7843 163.508 93.7136 162.822 94.3991C162.136 95.0846 161.206 95.4701 160.235 95.4712Z" fill="#CCCCCC"/>
<path d="M140.132 22.3765C141.005 27.0068 139.924 31.0972 137.717 31.5127C135.509 31.9282 133.012 28.5113 132.139 23.881C131.265 19.2507 133.951 11.5509 133.951 11.5509C133.951 11.5509 139.258 17.7462 140.132 22.3765Z" fill="#C0712D"/>
<path d="M156.882 43.9184C154.116 47.7351 150.399 49.7626 148.58 48.447C146.76 47.1313 147.528 42.9707 150.293 39.1539C153.059 35.3372 160.503 31.9927 160.503 31.9927C160.503 31.9927 159.648 40.1016 156.882 43.9184Z" fill="#C0712D"/>
<path d="M59.3765 221.006H26.0281V233.193H59.3765V221.006Z" fill="#C0712D"/>
<path d="M59.3765 260.819H26.0281V273.007H59.3765V260.819Z" fill="#C0712D"/>
<path d="M262.721 481.825H13.8274C10.1614 481.821 6.64674 480.364 4.05449 477.775C1.46224 475.185 0.00410596 471.674 -3.8147e-06 468.012V13.8129C0.00410596 10.1507 1.46224 6.63975 4.05449 4.05023C6.64674 1.46071 10.1614 0.00410545 13.8274 0H262.721C266.387 0.00412262 269.901 1.46072 272.494 4.05024C275.086 6.63976 276.544 10.1507 276.548 13.8129V468.012C276.544 471.674 275.086 475.185 272.494 477.775C269.901 480.364 266.387 481.821 262.721 481.825ZM13.8274 1.62504C10.5927 1.6287 7.49156 2.91394 5.20429 5.1988C2.91701 7.48367 1.63041 10.5816 1.62675 13.8129V468.012C1.63041 471.243 2.91701 474.341 5.20429 476.626C7.49156 478.911 10.5927 480.196 13.8274 480.2H262.721C265.955 480.196 269.056 478.911 271.344 476.626C273.631 474.341 274.918 471.243 274.921 468.012V13.8129C274.918 10.5816 273.631 7.48367 271.344 5.1988C269.056 2.91394 265.955 1.6287 262.721 1.62504H13.8274Z" fill="#3F3D56"/>
<path d="M275.735 93.8077H0.813377V95.4327H275.735V93.8077Z" fill="#3F3D56"/>
<path d="M275.735 191.336H0.813377V192.961H275.735V191.336Z" fill="#3F3D56"/>
<path d="M275.735 288.864H0.813377V290.489H275.735V288.864Z" fill="#3F3D56"/>
<path d="M275.735 386.392H0.813377V388.017H275.735V386.392Z" fill="#3F3D56"/>
<path d="M56.9364 290.882H29.2816C28.2033 290.881 27.1696 290.453 26.4072 289.691C25.6448 288.93 25.2159 287.897 25.2147 286.82V208.005C25.2159 206.928 25.6448 205.896 26.4072 205.134C27.1696 204.372 28.2033 203.944 29.2816 203.943H56.9364C58.0146 203.944 59.0483 204.372 59.8107 205.134C60.5731 205.896 61.002 206.928 61.0032 208.005V286.82C61.002 287.897 60.5731 288.93 59.8107 289.691C59.0483 290.453 58.0146 290.881 56.9364 290.882ZM29.2816 205.568C28.6346 205.569 28.0144 205.826 27.5569 206.283C27.0995 206.74 26.8421 207.359 26.8414 208.005V286.82C26.8421 287.466 27.0995 288.086 27.5569 288.543C28.0144 289 28.6346 289.257 29.2816 289.257H56.9364C57.5833 289.257 58.2035 289 58.661 288.543C59.1184 288.086 59.3758 287.466 59.3765 286.82V208.005C59.3758 207.359 59.1184 206.74 58.661 206.283C58.2035 205.826 57.5833 205.569 56.9364 205.568H29.2816Z" fill="#3F3D56"/>
<path d="M110.619 221.006H77.2708V233.193H110.619V221.006Z" fill="#C0712D"/>
<path d="M110.619 260.819H77.2708V273.007H110.619V260.819Z" fill="#C0712D"/>
<path d="M108.179 290.882H80.5243C79.4461 290.881 78.4124 290.453 77.6499 289.691C76.8875 288.93 76.4586 287.897 76.4574 286.82V208.005C76.4586 206.928 76.8875 205.896 77.6499 205.134C78.4124 204.372 79.4461 203.944 80.5243 203.943H108.179C109.257 203.944 110.291 204.372 111.053 205.134C111.816 205.896 112.245 206.928 112.246 208.005V286.82C112.245 287.897 111.816 288.93 111.053 289.691C110.291 290.453 109.257 290.881 108.179 290.882ZM80.5243 205.568C79.8773 205.569 79.2571 205.826 78.7997 206.283C78.3422 206.74 78.0849 207.359 78.0842 208.005V286.82C78.0849 287.466 78.3422 288.086 78.7997 288.543C79.2571 289 79.8773 289.257 80.5243 289.257H108.179C108.826 289.257 109.446 289 109.904 288.543C110.361 288.086 110.618 287.466 110.619 286.82V208.005C110.618 207.359 110.361 206.74 109.904 206.283C109.446 205.826 108.826 205.569 108.179 205.568H80.5243Z" fill="#3F3D56"/>
<path d="M191.957 122.691H158.608V134.878H191.957V122.691Z" fill="#C0712D"/>
<path d="M191.957 162.504H158.608V174.692H191.957V162.504Z" fill="#C0712D"/>
<path d="M189.517 192.567H161.862C160.784 192.566 159.75 192.138 158.988 191.376C158.225 190.615 157.796 189.582 157.795 188.505V109.69C157.796 108.613 158.225 107.581 158.988 106.819C159.75 106.057 160.784 105.629 161.862 105.628H189.517C190.595 105.629 191.629 106.057 192.391 106.819C193.154 107.581 193.582 108.613 193.584 109.69V188.505C193.582 189.582 193.154 190.615 192.391 191.376C191.629 192.138 190.595 192.566 189.517 192.567ZM161.862 107.253C161.215 107.253 160.595 107.511 160.137 107.968C159.68 108.424 159.423 109.044 159.422 109.69V188.505C159.423 189.151 159.68 189.771 160.137 190.228C160.595 190.685 161.215 190.942 161.862 190.942H189.517C190.164 190.942 190.784 190.685 191.241 190.228C191.699 189.771 191.956 189.151 191.957 188.505V109.69C191.956 109.044 191.699 108.424 191.241 107.967C190.784 107.511 190.164 107.253 189.517 107.253H161.862Z" fill="#3F3D56"/>
<path d="M243.2 122.691H209.851V134.878H243.2V122.691Z" fill="#C0712D"/>
<path d="M243.2 162.504H209.851V174.692H243.2V162.504Z" fill="#C0712D"/>
<path d="M240.759 192.567H213.105C212.026 192.566 210.993 192.138 210.23 191.376C209.468 190.615 209.039 189.582 209.038 188.505V109.69C209.039 108.613 209.468 107.581 210.23 106.819C210.993 106.057 212.026 105.629 213.105 105.628H240.759C241.838 105.629 242.871 106.057 243.634 106.819C244.396 107.581 244.825 108.613 244.826 109.69V188.505C244.825 189.582 244.396 190.615 243.634 191.376C242.871 192.138 241.838 192.566 240.759 192.567ZM213.105 107.253C212.458 107.253 211.837 107.511 211.38 107.967C210.923 108.424 210.665 109.044 210.665 109.69V188.505C210.665 189.151 210.923 189.771 211.38 190.228C211.837 190.685 212.458 190.942 213.105 190.942H240.759C241.406 190.942 242.027 190.685 242.484 190.228C242.942 189.771 243.199 189.151 243.2 188.505V109.69C243.199 109.044 242.942 108.424 242.484 107.967C242.027 107.511 241.406 107.253 240.759 107.253H213.105Z" fill="#3F3D56"/>
<path d="M151.524 213.727L120.307 225.445L124.598 236.854L155.815 225.136L151.524 213.727Z" fill="#C0712D"/>
<path d="M165.543 250.996L134.326 262.714L138.618 274.123L169.835 262.405L165.543 250.996Z" fill="#C0712D"/>
<path d="M146.525 289.975C145.698 289.973 144.891 289.72 144.211 289.249C143.532 288.778 143.011 288.112 142.72 287.339L114.967 213.561C114.589 212.553 114.627 211.435 115.073 210.455C115.518 209.474 116.335 208.71 117.344 208.329L143.231 198.612C143.731 198.424 144.263 198.337 144.797 198.355C145.331 198.372 145.856 198.495 146.342 198.715C146.829 198.936 147.267 199.25 147.632 199.639C147.997 200.029 148.281 200.487 148.469 200.986L176.221 274.764C176.599 275.772 176.562 276.89 176.116 277.87C175.671 278.851 174.854 279.615 173.845 279.996L147.958 289.713C147.5 289.886 147.014 289.974 146.525 289.975ZM144.663 199.976C144.37 199.976 144.078 200.03 143.804 200.133L117.916 209.851C117.311 210.079 116.821 210.537 116.553 211.126C116.286 211.714 116.263 212.385 116.49 212.99L144.243 286.767C144.355 287.067 144.526 287.342 144.745 287.575C144.964 287.809 145.227 287.998 145.519 288.13C145.811 288.262 146.126 288.336 146.446 288.346C146.766 288.357 147.085 288.304 147.385 288.192L173.273 278.474C173.878 278.246 174.368 277.788 174.635 277.199C174.903 276.611 174.925 275.94 174.699 275.335L146.946 201.558C146.771 201.094 146.459 200.694 146.051 200.411C145.644 200.129 145.159 199.977 144.663 199.976Z" fill="#3F3D56"/>
<path d="M39.2778 117.037L8.06059 128.755L12.3522 140.164L43.5695 128.446L39.2778 117.037Z" fill="#C0712D"/>
<path d="M53.2971 154.306L22.0799 166.024L26.3716 177.433L57.5888 165.715L53.2971 154.306Z" fill="#C0712D"/>
<path d="M34.2789 193.285C33.4518 193.283 32.6448 193.03 31.9652 192.559C31.2855 192.088 30.7654 191.422 30.474 190.649L2.72142 116.871C2.34343 115.863 2.38133 114.745 2.8268 113.765C3.27227 112.784 4.08894 112.02 5.0977 111.639L30.9854 101.922C31.4853 101.734 32.0174 101.647 32.5512 101.665C33.085 101.682 33.6101 101.805 34.0964 102.025C34.5828 102.246 35.0209 102.56 35.3858 102.949C35.7506 103.339 36.0351 103.797 36.2229 104.296L63.9755 178.074C64.3535 179.082 64.3156 180.2 63.8701 181.18C63.4246 182.161 62.608 182.925 61.5992 183.306L35.7115 193.023C35.2537 193.196 34.7683 193.284 34.2789 193.285ZM32.4173 103.286C32.1236 103.287 31.8324 103.34 31.5576 103.443L5.67011 113.161C5.06478 113.389 4.57473 113.847 4.30742 114.436C4.04012 115.024 4.01739 115.695 4.24421 116.3L31.9968 190.078C32.1095 190.377 32.2802 190.652 32.4991 190.885C32.718 191.119 32.9809 191.308 33.2727 191.44C33.5646 191.572 33.8796 191.646 34.1999 191.656C34.5201 191.667 34.8394 191.614 35.1393 191.502L61.0268 181.784C61.6321 181.556 62.1222 181.098 62.3895 180.509C62.6568 179.921 62.6795 179.25 62.4527 178.645L34.7001 104.868C34.5252 104.404 34.2131 104.004 33.8054 103.722C33.3977 103.439 32.9135 103.287 32.4173 103.286Z" fill="#3F3D56"/>
<path d="M509.987 203.13C523.913 203.13 535.202 191.853 535.202 177.942C535.202 164.031 523.913 152.754 509.987 152.754C496.061 152.754 484.772 164.031 484.772 177.942C484.772 191.853 496.061 203.13 509.987 203.13Z" fill="#2F2E41"/>
<path d="M397.969 292.89C399.16 293.351 400.438 293.546 401.713 293.46C402.987 293.374 404.227 293.01 405.346 292.394C406.465 291.778 407.434 290.924 408.187 289.893C408.939 288.862 409.456 287.678 409.701 286.426L479.031 242.73L466.412 228.537L402.201 275.981C400.068 275.709 397.909 276.229 396.133 277.441C394.358 278.653 393.089 280.474 392.567 282.558C392.045 284.642 392.307 286.845 393.303 288.749C394.298 290.654 395.959 292.127 397.969 292.89Z" fill="#FFB8B8"/>
<path d="M464.557 254.347C463.943 254.348 463.339 254.195 462.8 253.902C462.261 253.609 461.804 253.185 461.472 252.67L453.443 240.207C452.937 239.42 452.751 238.47 452.925 237.55C453.098 236.631 453.618 235.813 454.377 235.265L481.243 215.868C482.547 214.927 484.026 214.256 485.594 213.896C487.161 213.536 488.785 213.493 490.369 213.771C491.954 214.049 493.466 214.641 494.817 215.513C496.168 216.385 497.331 217.519 498.235 218.848C499.14 220.176 499.769 221.673 500.085 223.248C500.4 224.824 500.396 226.447 500.073 228.021C499.75 229.595 499.114 231.088 498.203 232.412C497.292 233.737 496.124 234.865 494.769 235.73L466.521 253.772C465.935 254.148 465.253 254.347 464.557 254.347Z" fill="#2F2E41"/>
<path d="M476.552 471.953L466.581 471.952L461.837 433.529L476.555 433.53L476.552 471.953Z" fill="#FFB8B8"/>
<path d="M459.458 469.106H478.689V481.202H447.349C447.349 479.613 447.663 478.04 448.271 476.573C448.88 475.105 449.772 473.772 450.896 472.649C452.02 471.525 453.355 470.634 454.824 470.027C456.293 469.419 457.868 469.106 459.458 469.106Z" fill="#2F2E41"/>
<path d="M523.105 464.505L513.504 467.198L498.54 431.487L512.71 427.513L523.105 464.505Z" fill="#FFB8B8"/>
<path d="M505.877 466.38L524.392 461.188L527.665 472.834L497.491 481.295C497.062 479.766 496.938 478.167 497.126 476.59C497.315 475.012 497.813 473.488 498.592 472.103C499.371 470.718 500.415 469.5 501.665 468.518C502.915 467.536 504.346 466.81 505.877 466.38Z" fill="#2F2E41"/>
<path d="M549.973 405.54L511.259 359.9L534.751 331.426C535.095 331.008 535.528 330.672 536.018 330.442C536.509 330.212 537.044 330.094 537.586 330.095C538.127 330.097 538.662 330.219 539.151 330.452C539.64 330.685 540.071 331.023 540.413 331.443L575.959 375.021L549.973 405.54Z" fill="#C0712D"/>
<path d="M512.821 360.24C513.392 359.213 514.1 358.27 514.925 357.434L537.347 334.726C538.226 333.832 539.41 333.301 540.662 333.239C543.225 333.118 547.426 333.377 548.597 336.185L518.325 360.927L512.821 360.24Z" fill="#F2F2F2"/>
<path d="M551.318 415.197C549.592 415.146 547.914 414.615 546.472 413.664L546.365 413.554L510.909 359.384L516.792 358.816L548.324 334.247C548.722 333.937 549.18 333.712 549.669 333.587C550.158 333.462 550.668 333.44 551.166 333.522C551.665 333.603 552.141 333.787 552.564 334.061C552.988 334.335 553.351 334.693 553.629 335.114L588.097 387.227C588.626 388.032 588.817 389.012 588.628 389.957C588.44 390.901 587.887 391.733 587.09 392.274L553.737 414.74C552.967 415.046 552.146 415.201 551.318 415.197Z" fill="#C0712D"/>
<path d="M538.778 378.142C538.444 378.143 538.116 378.061 537.821 377.905C537.526 377.749 537.275 377.522 537.088 377.246L533.015 371.202C532.715 370.755 532.604 370.207 532.707 369.678C532.81 369.15 533.119 368.684 533.566 368.382L554.463 354.329C554.911 354.029 555.459 353.919 555.988 354.022C556.517 354.125 556.984 354.433 557.286 354.88L561.359 360.923C561.659 361.371 561.77 361.919 561.666 362.447C561.563 362.976 561.254 363.442 560.807 363.744L539.911 377.797C539.576 378.022 539.182 378.142 538.778 378.142Z" fill="#3F3D56"/>
<path d="M460.259 466.142C459.147 466.138 458.076 465.718 457.258 464.966C456.439 464.214 455.932 463.183 455.835 462.076C454.061 441.938 445.158 340.441 444.181 319.944C443.096 297.17 462.07 261.141 462.261 260.78L462.393 260.533L471.771 261.703V262.793L480.697 263.842L497.972 265.512L502.917 325.897L505.104 366.85L525.649 450.494C525.882 451.42 525.741 452.401 525.256 453.224C524.771 454.047 523.981 454.646 523.058 454.893L505.177 459.764C504.247 460.013 503.257 459.888 502.419 459.416C501.58 458.943 500.961 458.161 500.693 457.237L483.859 398.161C483.777 397.876 483.594 397.629 483.343 397.469C483.093 397.309 482.792 397.245 482.498 397.291C482.204 397.337 481.937 397.488 481.747 397.717C481.556 397.945 481.457 398.236 481.466 398.533L483.246 456.137C483.255 456.728 483.143 457.315 482.917 457.862C482.691 458.408 482.355 458.903 481.931 459.315C477.832 463.161 467.003 465.213 460.912 466.095C460.696 466.126 460.478 466.142 460.259 466.142Z" fill="#2F2E41"/>
<path d="M513.988 212.387C511.15 209.432 492.455 213.493 488.304 217.846L459.888 264.246L506.884 272.98L517.267 214.024L513.988 212.387Z" fill="#C0712D"/>
<path d="M501.67 330.273C500.658 330.274 499.652 330.106 498.695 329.778C495.965 328.842 492.619 327.863 488.749 326.87C471.804 322.517 465.821 308.58 470.967 285.447L471.097 284.86C475.93 262.916 485.038 242.137 497.903 223.707L499.896 220.848C502.302 217.398 505.669 214.73 509.58 213.176C513.491 211.622 517.773 211.251 521.894 212.108C529.519 213.679 533.613 215.956 534.062 218.875C534.945 224.603 517.913 293.846 510.55 323.351C510.057 325.33 508.914 327.086 507.305 328.341C505.695 329.596 503.711 330.276 501.67 330.273Z" fill="#2F2E41"/>
<path d="M443.293 321.384C442.85 321.384 442.41 321.315 441.988 321.181L436.495 319.425C435.928 319.244 435.404 318.946 434.958 318.55C434.512 318.155 434.154 317.671 433.905 317.13C433.657 316.588 433.525 316.001 433.517 315.405C433.509 314.81 433.626 314.219 433.86 313.671L463.004 245.335C468.588 232.299 478.352 221.487 490.759 214.6C490.939 214.501 491.138 214.44 491.342 214.421C491.547 214.402 491.753 214.425 491.948 214.489C492.127 214.546 492.293 214.64 492.434 214.765C492.574 214.889 492.687 215.042 492.765 215.213C496.193 222.746 477.537 258.394 462.547 287.036C454.871 301.703 448.241 314.37 447.487 317.982C447.286 318.944 446.759 319.807 445.995 320.427C445.231 321.047 444.277 321.384 443.293 321.384Z" fill="#2F2E41"/>
<path d="M533.46 336.955C534.484 336.192 535.328 335.214 535.932 334.089C536.536 332.965 536.887 331.722 536.958 330.448C537.03 329.174 536.82 327.9 536.346 326.715C535.871 325.531 535.142 324.464 534.21 323.592L533.978 241.703L515.238 244.844L521.367 324.391C520.003 326.052 519.297 328.155 519.382 330.302C519.466 332.449 520.337 334.49 521.827 336.039C523.318 337.587 525.325 338.536 527.469 338.705C529.613 338.874 531.745 338.251 533.46 336.955Z" fill="#FFB8B8"/>
<path d="M518.202 262.019C517.273 262.019 516.379 261.666 515.701 261.032C515.023 260.397 514.612 259.53 514.551 258.604L512.371 225.562C512.165 222.383 513.229 219.252 515.331 216.856C517.433 214.459 520.401 212.994 523.583 212.78C525.216 212.673 526.855 212.9 528.398 213.447C529.941 213.994 531.356 214.85 532.556 215.963C533.756 217.075 534.716 218.421 535.378 219.917C536.039 221.414 536.388 223.029 536.402 224.664L536.698 258.156C536.705 259.124 536.329 260.054 535.651 260.746C534.973 261.437 534.05 261.832 533.081 261.845L518.246 262.019L518.202 262.019Z" fill="#2F2E41"/>
<path d="M504.793 204.411C515.826 204.411 524.77 195.477 524.77 184.455C524.77 173.433 515.826 164.499 504.793 164.499C493.76 164.499 484.816 173.433 484.816 184.455C484.816 195.477 493.76 204.411 504.793 204.411Z" fill="#FFB8B8"/>
<path d="M521.403 198.419C522.893 193.682 524.261 188.098 521.313 184.101C519.188 181.221 515.373 180.106 511.796 179.946C508.218 179.787 504.63 180.392 501.06 180.109C497.49 179.825 493.717 178.418 491.903 175.333C489.552 171.333 491.543 165.823 495.324 163.129C499.104 160.435 504.099 160.059 508.7 160.686C514.522 161.377 519.996 163.823 524.392 167.698C528.669 171.641 531.456 177.325 531.332 183.138C531.208 188.95 527.945 194.739 522.744 197.349" fill="#2F2E41"/>
<path d="M516.422 154.813C511.64 153.341 509.434 147.025 511.573 142.506C513.711 137.986 519.178 135.62 524.143 136.249C529.107 136.879 533.481 140.06 536.499 144.048C539.516 148.036 541.336 152.79 542.853 157.554C544.369 162.318 545.631 167.185 547.703 171.735C550.991 178.726 556.063 184.73 562.409 189.143C568.755 193.557 576.153 196.224 583.858 196.876C587.216 197.119 590.701 196.945 593.762 195.543C596.823 194.141 599.389 191.313 599.732 187.967C601.474 199.854 594.552 212.486 583.59 217.425C572.628 222.365 558.567 219.187 550.8 210.015C543.211 201.052 542.035 188.398 542.218 176.659C542.268 173.441 542.387 170.161 541.496 167.067C540.606 163.973 538.499 161.031 535.43 160.048C532.954 159.256 530.273 159.827 527.734 160.389C525.196 160.951 522.5 161.492 520.043 160.645C517.585 159.798 515.606 157.005 516.596 154.604" fill="#2F2E41"/>
<path d="M595.459 482.637H380.728C380.512 482.637 380.305 482.552 380.152 482.399C380 482.247 379.914 482.04 379.914 481.825C379.914 481.609 380 481.403 380.152 481.25C380.305 481.098 380.512 481.012 380.728 481.012H595.459C595.675 481.012 595.882 481.098 596.034 481.25C596.187 481.403 596.272 481.609 596.272 481.825C596.272 482.04 596.187 482.247 596.034 482.399C595.882 482.552 595.675 482.637 595.459 482.637Z" fill="#CCCCCC"/>
</g>
<defs>
<clipPath id="clip0_9_2">
<rect width="600" height="482.637" fill="white"/>
</clipPath>
</defs>
</svg>
