<svg width="200" height="200" viewBox="0 0 200 200" fill="none" xmlns="http://www.w3.org/2000/svg">
<g clip-path="url(#clip0_7_2)">
<path d="M175 41.6667C165.75 38.75 155.583 37.5 145.833 37.5C129.583 37.5 112.083 40.8333 100 50C87.9166 40.8333 70.4166 37.5 54.1666 37.5C37.9166 37.5 20.4166 40.8333 8.33331 50V172.083C8.33331 174.167 10.4166 176.25 12.5 176.25C13.3333 176.25 13.75 175.833 14.5833 175.833C25.8333 170.417 42.0833 166.667 54.1666 166.667C70.4166 166.667 87.9166 170 100 179.167C111.25 172.083 131.667 166.667 145.833 166.667C159.583 166.667 173.75 169.167 185.417 175.417C186.25 175.833 186.667 175.833 187.5 175.833C189.583 175.833 191.667 173.75 191.667 171.667V50C186.667 46.25 181.25 43.75 175 41.6667ZM175 154.167C165.833 151.25 155.833 150 145.833 150C131.667 150 111.25 155.417 100 162.5V66.6667C111.25 59.5833 131.667 54.1667 145.833 54.1667C155.833 54.1667 165.833 55.4167 175 58.3333V154.167Z" fill="#E6E6E6"/>
<path d="M145.833 87.5C153.167 87.5 160.25 88.25 166.667 89.6667V77C160.083 75.75 153 75 145.833 75C131.667 75 118.833 77.4167 108.333 81.9167V95.75C117.75 90.4167 130.833 87.5 145.833 87.5Z" fill="#E6E6E6"/>
<path d="M108.333 104.083V117.917C117.75 112.583 130.833 109.667 145.833 109.667C153.167 109.667 160.25 110.417 166.667 111.833V99.1667C160.083 97.9167 153 97.1667 145.833 97.1667C131.667 97.1667 118.833 99.6667 108.333 104.083Z" fill="#E6E6E6"/>
<path d="M145.833 119.417C131.667 119.417 118.833 121.833 108.333 126.333V140.167C117.75 134.833 130.833 131.917 145.833 131.917C153.167 131.917 160.25 132.667 166.667 134.083V121.417C160.083 120.083 153 119.417 145.833 119.417Z" fill="#E6E6E6"/>
</g>
<defs>
<clipPath id="clip0_7_2">
<rect width="200" height="200" fill="white"/>
</clipPath>
</defs>
</svg>
